<svg xmlns="http://www.w3.org/2000/svg" width="17.5" height="14.375" viewBox="0 0 17.5 14.375">
  <defs>
    <style>
      .cls-1 {
        fill: #fff;
        fill-rule: evenodd;
      }
    </style>
  </defs>
  <path id="icon-twitter.svg" class="cls-1" d="M1694.75,24.829a7.221,7.221,0,0,1-2.06.573,3.652,3.652,0,0,0,1.58-2.007,7.132,7.132,0,0,1-2.28.88,3.582,3.582,0,0,0-6.21,2.478,3.757,3.757,0,0,0,.09.828,10.135,10.135,0,0,1-7.4-3.792,3.646,3.646,0,0,0,1.11,4.844,3.483,3.483,0,0,1-1.63-.453v0.045a3.62,3.62,0,0,0,2.88,3.556,3.556,3.556,0,0,1-.94.128,3.38,3.38,0,0,1-.68-0.068,3.612,3.612,0,0,0,3.36,2.52,7.164,7.164,0,0,1-4.46,1.553,7.087,7.087,0,0,1-.86-0.053,9.956,9.956,0,0,0,5.5,1.64,10.2,10.2,0,0,0,10.22-10.325c0-.157,0-0.314-0.01-0.468A7.315,7.315,0,0,0,1694.75,24.829Z" transform="translate(-1677.25 -23.125)"/>
</svg>
