<svg xmlns="http://www.w3.org/2000/svg" width="17.5" height="14.38" viewBox="0 0 17.5 14.38">
  <defs>
    <style>
      .cls-1 {
        fill: #fff;
        fill-rule: evenodd;
      }
    </style>
  </defs>
  <path id="twiter.svg" class="cls-1" d="M1298.75,3358.83a7.242,7.242,0,0,1-2.06.57,3.648,3.648,0,0,0,1.58-2.01,7.02,7.02,0,0,1-2.28.88,3.587,3.587,0,0,0-6.21,2.48,3.77,3.77,0,0,0,.09.83,10.157,10.157,0,0,1-7.4-3.79,3.642,3.642,0,0,0,1.11,4.84,3.457,3.457,0,0,1-1.63-.45v0.04a3.622,3.622,0,0,0,2.88,3.56,3.676,3.676,0,0,1-.94.13,3.824,3.824,0,0,1-.68-0.07,3.614,3.614,0,0,0,3.36,2.52,7.182,7.182,0,0,1-4.46,1.55,8.108,8.108,0,0,1-.86-0.05,9.966,9.966,0,0,0,5.5,1.64,10.206,10.206,0,0,0,10.22-10.33c0-.15,0-0.31-0.01-0.46A7.442,7.442,0,0,0,1298.75,3358.83Z" transform="translate(-1281.25 -3357.12)"/>
</svg>
